<?xml version="1.0" standalone="no"?>
<!DOCTYPE svg PUBLIC "-//W3C//DTD SVG 20010904//EN"
 "http://www.w3.org/TR/2001/REC-SVG-20010904/DTD/svg10.dtd">
<svg version="1.0" xmlns="http://www.w3.org/2000/svg"
 width="500.000000pt" height="500.000000pt" viewBox="0 0 500.000000 500.000000"
 preserveAspectRatio="xMidYMid meet">

<g transform="translate(0.000000,500.000000) scale(0.100000,-0.100000)"
fill="#000000" stroke="none">
<path d="M602 2425 c2 -594 6 -877 14 -885 7 -7 618 -9 2000 -8 l1989 3 0 875
0 875 -120 6 c-66 4 -968 7 -2003 8 l-1884 1 4 -875z m673 462 c3 -12 4 -193
2 -402 -4 -447 -6 -459 -89 -538 -36 -34 -66 -52 -106 -63 -73 -21 -190 -15
-254 13 -49 22 -138 98 -138 117 1 6 14 26 30 45 l28 33 32 -35 c58 -66 94
-82 192 -82 100 0 129 14 163 81 19 36 20 62 23 396 l3 358 -188 2 -188 3 -3
33 c-6 64 -16 62 247 62 l241 0 5 -23z m427 -329 c4 -387 5 -391 68 -483 20
-29 50 -55 83 -72 47 -25 62 -27 162 -27 93 0 116 3 151 21 59 31 111 90 136
153 21 52 23 72 26 408 l3 352 56 0 55 0 -5 -352 c-3 -325 -5 -358 -25 -422
-26 -85 -61 -136 -122 -181 -91 -67 -131 -78 -270 -79 -145 -1 -192 12 -278
76 -64 47 -105 110 -132 197 -18 58 -20 93 -20 412 l0 349 54 0 55 0 3 -352z
m1579 338 c118 -25 203 -84 254 -177 28 -51 30 -61 30 -164 0 -94 -3 -116 -22
-151 -30 -57 -109 -133 -161 -156 l-43 -19 31 -42 c18 -23 56 -78 86 -122 30
-44 72 -104 95 -132 l40 -53 -65 0 -65 0 -33 50 c-18 27 -70 100 -115 162
l-82 113 -181 -3 -180 -3 0 -159 0 -160 -55 0 -55 0 0 515 0 515 228 0 c156 0
248 -5 293 -14z m659 -451 l0 -465 285 0 285 0 0 -50 0 -50 -340 0 -340 0 0
515 0 515 55 0 55 0 0 -465z"/>
<path d="M2870 2555 l0 -255 168 0 c187 0 258 12 326 58 78 51 110 160 82 274
-13 53 -24 70 -62 105 -68 63 -112 73 -331 73 l-183 0 0 -255z"/>
</g>
</svg>
